<svg id="Layer_1" data-name="Layer 1" xmlns="http://www.w3.org/2000/svg" xmlns:xlink="http://www.w3.org/1999/xlink" viewBox="0 0 625.75 454.25">
  <defs>
    <linearGradient id="linear-gradient" x1="176.94" y1="260.89" x2="625.8" y2="192.31" gradientUnits="userSpaceOnUse">
      <stop offset="0.16"/>
      <stop offset="0.18" stop-color="#000406"/>
      <stop offset="0.54" stop-color="#003e67"/>
      <stop offset="0.8" stop-color="#0063a4"/>
      <stop offset="0.92" stop-color="#0071bc"/>
    </linearGradient>
    <linearGradient id="linear-gradient-2" x1="369.44" y1="332.65" x2="697.12" y2="332.65" gradientTransform="translate(-236.07 367.54) rotate(-45)" gradientUnits="userSpaceOnUse">
      <stop offset="0.08" stop-color="#0071bc"/>
      <stop offset="0.18" stop-color="#006cb4"/>
      <stop offset="0.33" stop-color="#005e9c"/>
      <stop offset="0.53" stop-color="#004777"/>
      <stop offset="0.75" stop-color="#002842"/>
      <stop offset="1"/>
    </linearGradient>
  </defs>
  <g>
    <circle cx="398.75" cy="227" r="227" fill="url(#linear-gradient)"/>
    <g>
      <circle cx="227" cy="227.25" r="227"/>
      <rect x="80.5" y="112.75" width="293" height="19" rx="9.5" fill="#fff"/>
      <rect x="80.5" y="147.75" width="293" height="19" rx="9.5" fill="#fff"/>
      <rect x="80.5" y="182.75" width="293" height="19" rx="9.5" fill="#fff"/>
      <rect x="80.5" y="217.75" width="293" height="19" rx="9.5" fill="#fff"/>
      <rect x="80.5" y="252.75" width="293" height="19" rx="9.5" fill="#fff"/>
      <rect x="80.5" y="287.75" width="293" height="19" rx="9.5" fill="#fff"/>
      <rect x="80.5" y="322.75" width="180.25" height="19" rx="9.5" fill="#fff"/>
    </g>
    <g>
      <rect x="581.69" y="149.22" width="12" height="50" transform="translate(-38.18 393.71) rotate(-45)"/>
      <rect x="592.37" y="131.54" width="26" height="50" transform="translate(-20.5 401.04) rotate(-45)"/>
      <polygon points="474.41 92.15 509.76 127.5 318.14 319.13 260.38 341.53 282.78 283.77 474.41 92.15" fill="url(#linear-gradient-2)"/>
      <rect x="387.92" y="253.36" width="186" height="10" rx="5" transform="translate(-128.95 342.86) rotate(-45)" fill="#f2f2f2"/>
    </g>
  </g>
</svg>
